<svg 
    version="1.1" 
    xmlns="http://www.w3.org/2000/svg"
    xlink="http://www.w3.org/1999/xlink" 
    encoding="UTF-8" 
    x="0px" 
    y="0px" 
    viewBox="0 0 792 206"
    space="preserve" 
    width="300" 
    height="78" 
    id="logo" 
    style="enable-background:new 0 0 792 206;"
>
    <g>
        <g>
            <g>
                <g>
                    <path                             
                        d="M30,33.6c10.5-10.4,28.2-11.4,48-4.8c7.1,2.4,14.5,5.7,22,10c12.6,7.2,25.4,17,37.3,29
                        c11.5,11.7,20.9,24.2,27.8,36.6c4.3-7.5,7.6-14.9,9.9-22.1c-5.7-10.4-13.1-20.6-22.2-29.8c-9.5-9.6-19.9-17.4-30.7-23.3
                        c-7.3-4-14.6-7.1-22-9.3c-26.8-8.1-53.2-4.6-70.4,12.3C13.1,48.6,8.8,73.9,15.7,100c2.2-6.3,5.1-12.6,8.6-18.8
                        C18.1,61.4,19.5,43.9,30,33.6z" 
                        class="st0"
                    ></path>
                    <path 
                        d="M183.4,101.2c-2.1,7.7-5.2,15.4-9.2,22.9c7.6,21.4,6.8,40.5-4.3,51.4c-11,10.9-29.9,11.4-51,3.7
                        c-6.4-2.4-13.1-5.5-19.8-9.4c-12.3-7.2-24.8-16.8-36.4-28.6c-12-12.1-21.6-25.2-28.6-38c-3.9,6.6-7,13.2-9.4,19.6
                        c5.8,11.4,13.7,22.4,23.6,32.5c9.6,9.7,20.1,17.5,30.9,23.5c6.5,3.6,13.2,6.4,19.8,8.5c27.5,8.9,54.8,5.6,72.4-11.7
                        C189.3,158,192.8,129.7,183.4,101.2z" 
                        class="st0"
                    ></path>
                </g>
            <g>
                <path  
                    d="M28.1,174.5c-11-11.1-11.5-30.2-3.5-51.5c2.4-6.4,5.5-13,9.4-19.6c7-12.2,16.6-24.6,28.3-36.1
                    c12.1-11.9,25-21.5,37.7-28.5c-7.5-4.3-14.9-7.6-22-10c-10.9,5.8-21.4,13.4-31.1,22.9c-9.3,9.1-16.8,19.1-22.6,29.5
                    c-3.5,6.2-6.4,12.5-8.6,18.8c-9.9,28.3-6.8,56.7,11,74.8c17.3,17.6,44.6,21.3,72.2,12.8c-6.6-2.2-13.3-5-19.8-8.5
                    C57.8,186.4,38.9,185.6,28.1,174.5z" 
                    class="st1"
                ></path>
                <path 
                    d="M170.3,33.3c-16.9-17.2-43.2-21.1-70.2-13.4c7.4,2.2,14.7,5.3,22,9.3c20-6.3,37.6-5,47.9,5.5
                    c10.3,10.4,11.4,27.9,4.9,47.6c-2.3,7.1-5.7,14.6-9.9,22.1c-7.2,12.7-17.1,25.6-29.2,37.5c-11.8,11.6-24.4,21-36.8,28
                    c6.7,3.9,13.3,7,19.8,9.4c10.9-5.8,21.5-13.4,31.2-23c10.1-9.9,18.1-20.9,24.2-32.1c4-7.6,7.1-15.3,9.2-22.9
                    C190.6,75.3,186.7,49.9,170.3,33.3z" 
                    class="st1"
                ></path>
            </g>
        </g>
        <g>
            <g>
                <path 
                    d="M88.4,126.1V124c4.7-0.6,5.4-1.2,4.4-4.1s-2.5-6.9-4.1-11.4H72.9c-1.2,3.3-2.3,6.5-3.3,9.6
                    c-1.6,4.7-1,5.4,4.6,6v2.1H58.1V124c4.7-0.7,5.7-1.1,8.3-7.7l15.4-39l2.3-0.7c4.6,12.8,9.6,26.9,14.3,39.8
                    c2.4,6.4,3.3,7.1,8.2,7.5v2.1L88.4,126.1L88.4,126.1z M81.1,86.3L81.1,86.3c-2.5,6.4-4.9,12.9-7.1,19h13.7L81.1,86.3z" 
                    class="st0"
                ></path>
            </g>
            <path 
                d="M125.7,76.7c5.4,0,7.2,0.9,10.2,3.2c3,2.2,4.9,5.7,4.9,10.7c0,9.8-3.7,16.2-11.1,17.2
                c-1.2,0.1-3.8,0.3-4.6,0.2h-5.5l-0.1,8.7c0,6.5,0.7,6.8,7.5,7.3v2.1h-20.6V124c6.1-0.5,6.7-1.1,6.7-7.4V86.2c0-6.7-0.6-7-6.2-7.4
                v-2.1H125.7z M119.6,104.6c1.1,0.1,3.2,0,5.7,0c4.9,0,10.8-4.1,10.8-13.8c0-8.2-5.2-11.7-11.5-11.7c-2.1,0-3.7,0.4-4.3,0.9
                c-0.6,0.5-0.8,1.4-0.8,3.6v21H119.6z" 
                class="st1"
            ></path>
        </g>
    </g>
    <g>
        <g>
            <path 
                d="M255.6,138.6v-2.8c6.3-0.8,7.2-1.6,5.9-5.5c-1.3-3.9-3.3-9.3-5.5-15.3h-21.2c-1.6,4.5-3.1,8.7-4.4,12.8
                c-2.2,6.3-1.3,7.3,6.2,7.9v2.8H215v-2.8c6.3-0.9,7.7-1.5,11.1-10.2l20.6-52.2l3.1-0.9c6.2,17.1,12.8,36,19.2,53.3
                c3.2,8.6,4.5,9.5,10.9,10v2.8h-24.3V138.6z M245.8,85.4h-0.2c-3.2,8.6-6.4,17.2-9.4,25.4h18.3L245.8,85.4z" 
                class="st0"
            ></path>
            <path 
                d="M337.4,89c-0.8-4-1.4-5.9-2.8-8c-1.6-2.8-3.8-3.6-11.3-3.6h-7.5c-2.9,0-3.2,0.2-3.2,3.1v23.7h10.2
                c9.1,0,9.5-0.9,10.7-7.3h2.8V116h-2.8c-1.3-6.8-1.7-8-10.7-8h-10.2v18c0,8.6,0.8,9.2,9.8,9.7v2.8h-27.1v-2.8
                c8-0.6,8.8-1.2,8.8-9.7V86.5c0-8.7-0.8-9.2-8.5-9.7V74h43.8c0,3.6,0.5,9.9,1,14.6L337.4,89z" 
                class="st0"
            ></path>
            <path 
                d="M399.7,89c-0.8-4-1.4-5.9-2.8-8c-1.6-2.8-3.8-3.6-11.3-3.6H378c-2.9,0-3.2,0.2-3.2,3.1v23.7h10.3
                c9.1,0,9.4-0.9,10.7-7.3h2.8V116h-2.8c-1.3-6.8-1.7-8-10.7-8h-10.3v18c0,8.6,0.8,9.2,9.8,9.7v2.8h-27.1v-2.8
                c8-0.6,8.8-1.2,8.8-9.7V86.5c0-8.7-0.8-9.2-8.5-9.7V74h43.8c0,3.6,0.5,9.9,1,14.6L399.7,89z" 
                class="st0"
            ></path>
            <path 
                d="M419.7,138.6v-2.8c8.2-0.6,9-1.2,9-9.6V86.4c0-8.5-0.8-9.1-9-9.7V74H446v2.8c-8.2,0.6-8.9,1.2-8.9,9.7v39.8
                c0,8.6,0.8,9,8.9,9.6v2.8h-26.3V138.6z" 
                class="st0"
            ></path>
            <path 
                d="M531,76.8c-5.6,0.3-8,1.6-8.4,6c-0.4,3-0.6,7.5-0.6,16.7v40.1h-3.1l-42.4-52.1h-0.2v25
                c0,9.2,0.3,13.9,0.6,16.8c0.5,5.1,2.8,6.3,9.5,6.7v2.8h-23.6V136c5.8-0.3,8.3-1.6,8.7-6.5c0.3-3.1,0.6-7.9,0.6-17v-22
                c0-7.3-0.2-7.7-2-10.1c-2-2.5-4.2-3.3-8.9-3.7V74h14.7l41.5,49.9h0.3V99.4c0-9.1-0.4-13.7-0.7-16.5c-0.5-4.5-2.9-5.8-9.7-6.2V74
                H531V76.8z" 
                class="st0"
            ></path>
            <path 
                d="M546.8,138.6v-2.8c8.2-0.6,9-1.2,9-9.6V86.4c0-8.5-0.8-9.1-9-9.7V74h26.4v2.8c-8.2,0.6-9,1.2-9,9.7v39.8
                c0,8.6,0.8,9,9,9.6v2.8h-26.4V138.6z" 
                class="st0"
            ></path>
            <path 
                d="M680.9,138.6v-2.8c6.3-0.8,7.2-1.6,5.9-5.5c-1.3-3.9-3.3-9.3-5.5-15.3h-21.2c-1.6,4.5-3.1,8.7-4.4,12.8
                    c-2.2,6.3-1.3,7.3,6.2,7.9v2.8h-21.6v-2.8c6.3-0.9,7.7-1.5,11.1-10.2L672,73.4l3.1-0.9c6.2,17.1,12.8,36,19.2,53.3
                    c3.2,8.6,4.5,9.5,10.9,10v2.8H680.9z M671.2,85.4H671c-3.2,8.6-6.4,17.2-9.4,25.4h18.3L671.2,85.4z" 
                class="st1"
            ></path>
            <path 
                d="M766.5,76.8c-6.9,0.8-8,1.8-11.8,7.9c-4.5,7.3-7.9,13-12.7,21.8c-1.3,2.6-1.6,3.7-1.6,6.3v13.5
                c0,8.4,0.8,9,10,9.6v2.8h-28.2v-2.8c8.9-0.6,9.7-1.2,9.7-9.6V113c0-2-0.4-2.9-2.1-5.9c-3.5-6.2-7.1-12.6-12.5-21.9
                c-4-6.8-5.1-7.9-11-8.5V74h23.8v2.8c-7.1,0.9-6.9,2.1-5,5.4c4.2,7.9,9.1,16.1,13.3,23.6c3.7-6.6,9.1-16.3,11.8-22.4
                c2.3-5,2-5.8-5.8-6.6V74h22L766.5,76.8L766.5,76.8z" 
                class="st1"
            ></path>
            <path
                d="M615.6,74.1c7,0,9.3,1.2,13.3,4.2c3.9,2.9,6.5,7.4,6.5,14c0,12.8-4.8,21.1-14.5,22.4c-1.5,0.1-4.9,0.4-6,0.3
                h-7.1l-0.2,11.3c0,8.4,0.9,8.9,9.8,9.5v2.8h-26.9v-2.8c8-0.6,8.7-1.4,8.7-9.6V86.5c0-8.7-0.8-9.1-8.1-9.6v-2.8H615.6z
                M607.6,110.6c1.5,0.1,4.2,0,7.5,0c6.5,0,14.2-5.4,14.2-18c0-10.7-6.8-15.3-15-15.3c-2.8,0-4.9,0.5-5.6,1.2
                c-0.8,0.7-1.1,1.9-1.1,4.7L607.6,110.6L607.6,110.6z" 
                class="st1"
            ></path>
            </g>
        </g>
    </g>
    <path 
        d="M779,73.8c1,0,2,0.3,2.9,0.8c0.9,0.5,1.7,1.2,2.2,2.2c0.5,0.9,0.8,1.9,0.8,3c0,1-0.3,2-0.8,2.9
        s-1.2,1.7-2.2,2.2c-0.9,0.5-1.9,0.8-2.9,0.8c-1,0-2-0.3-2.9-0.8c-0.9-0.5-1.7-1.2-2.2-2.2c-0.5-0.9-0.8-1.9-0.8-2.9c0-1,0.3-2,0.8-3
        c0.5-0.9,1.3-1.7,2.2-2.2C777,74.1,778,73.8,779,73.8z M779,74.8c-0.8,0-1.6,0.2-2.4,0.6c-0.8,0.4-1.4,1-1.8,1.8
        c-0.4,0.8-0.7,1.6-0.7,2.5c0,0.8,0.2,1.7,0.7,2.4s1,1.4,1.8,1.8c0.8,0.4,1.6,0.7,2.4,0.7s1.7-0.2,2.4-0.7c0.8-0.4,1.4-1,1.8-1.8
        c0.4-0.8,0.6-1.6,0.6-2.4c0-0.9-0.2-1.7-0.7-2.5c-0.4-0.8-1.1-1.4-1.8-1.8C780.6,75,779.8,74.8,779,74.8z M776.7,82.6v-6.1h2.1
        c0.7,0,1.2,0.1,1.5,0.2c0.3,0.1,0.6,0.3,0.8,0.6c0.2,0.3,0.3,0.6,0.3,0.9c0,0.4-0.2,0.8-0.5,1.2s-0.7,0.5-1.3,0.6
        c0.2,0.1,0.4,0.2,0.5,0.3c0.2,0.2,0.5,0.6,0.9,1.2l0.7,1.2h-1.2l-0.5-1c-0.4-0.8-0.8-1.2-1-1.4c-0.2-0.1-0.4-0.2-0.8-0.2h-0.6v2.6
        H776.7z M777.7,79.2h1.2c0.6,0,1-0.1,1.2-0.3s0.3-0.4,0.3-0.7c0-0.2,0-0.3-0.1-0.5c-0.1-0.1-0.2-0.2-0.4-0.3c-0.2-0.1-0.5-0.1-1-0.1
        h-1.1V79.2z" 
        class="st1"
    ></path>
</svg>
